<?xml version="1.0" encoding="utf-8"?>
<!-- Generator: Adobe Illustrator 23.0.3, SVG Export Plug-In . SVG Version: 6.00 Build 0)  -->
<svg version="1.1" id="Icons" xmlns="http://www.w3.org/2000/svg" xmlns:xlink="http://www.w3.org/1999/xlink" x="0px" y="0px"
	 viewBox="0 0 32 32" style="enable-background:new 0 0 32 32;" xml:space="preserve">
<style type="text/css">
	.st0{fill:none;stroke:#000000;stroke-width:2;stroke-linecap:round;stroke-linejoin:round;stroke-miterlimit:10;}
</style>
<line class="st0" x1="3" y1="19" x2="29" y2="19"/>
<line class="st0" x1="9" y1="29" x2="23" y2="29"/>
<path class="st0" d="M13,23c0,2.1-0.7,4.6-1.8,6"/>
<path class="st0" d="M20.8,29c-1.1-1.4-1.8-3.9-1.8-6"/>
<path class="st0" d="M21.4,2l-0.7,0.3c-1.7,0.8-3.6,1-5.4,0.5C14.7,2.6,14,2,13.3,2H10v7h2.2c0-1.1,1-2.3,2.2-2.3H17l-1.5,1.8
	c-1.8,2.2-3.2,4.8-3.9,7.5h7c0-3.1,0.8-6.1,2.4-8.7L23,4.1L21.4,2z"/>
<path class="st0" d="M10,4H5C3.9,4,3,4.9,3,6v15c0,1.1,0.9,2,2,2h22c1.1,0,2-0.9,2-2V6c0-1.1-0.9-2-2-2h-4"/>
</svg>
