<?xml version="1.0" standalone="no"?>
<!DOCTYPE svg PUBLIC "-//W3C//DTD SVG 20010904//EN"
 "http://www.w3.org/TR/2001/REC-SVG-20010904/DTD/svg10.dtd">
<svg version="1.0" xmlns="http://www.w3.org/2000/svg"
 width="190.000000pt" height="130.000000pt" viewBox="0 0 190.000000 130.000000"
 preserveAspectRatio="xMidYMid meet">
<metadata>
Created by potrace 1.16, written by Peter Selinger 2001-2019
</metadata>
<g transform="translate(0.000000,130.000000) scale(0.100000,-0.100000)"
fill="#000000" stroke="none">
<path d="M1100 1281 c-109 -24 -169 -45 -251 -87 -52 -27 -77 -34 -125 -34
-269 -1 -473 -68 -605 -200 -81 -80 -112 -142 -117 -232 -5 -85 9 -128 58
-172 44 -40 92 -56 168 -56 28 0 52 -2 52 -4 0 -2 -14 -33 -30 -68 -36 -77
-48 -172 -30 -237 11 -42 66 -111 88 -111 5 0 12 18 16 39 3 22 11 52 17 68
l11 28 18 -36 c39 -75 118 -130 234 -164 89 -26 318 -17 450 18 351 93 690
349 814 615 25 53 27 66 27 197 0 130 -2 144 -25 189 -56 111 -156 186 -315
236 -100 32 -333 37 -455 11z m431 -110 c79 -25 139 -67 175 -121 55 -83 41
-241 -34 -384 -45 -86 -178 -229 -272 -291 -68 -45 -205 -117 -247 -130 -21
-6 -23 -3 -23 37 0 55 31 168 71 257 30 66 33 70 77 81 152 38 282 147 313
263 15 55 4 57 -21 4 -40 -84 -159 -173 -259 -193 l-33 -7 34 54 c40 66 159
227 218 294 l43 49 -34 14 c-120 49 -310 -108 -428 -355 -39 -82 -33 -80 -161
-42 -172 50 -244 140 -195 242 32 65 30 64 187 75 193 13 223 30 242 134 6 32
11 37 39 41 73 11 242 -1 308 -22z m-1021 -197 c0 -4 -49 -107 -109 -230 -120
-245 -112 -236 -193 -214 -114 32 -163 155 -100 249 55 82 153 138 317 181 80
22 85 22 85 14z m200 -257 c58 -64 190 -117 291 -117 l46 0 -14 -52 c-33 -128
-26 -232 22 -302 l23 -34 -97 -23 c-81 -20 -121 -24 -251 -23 -139 0 -161 3
-215 24 -76 30 -115 67 -115 111 0 39 36 88 85 119 42 26 39 37 -4 22 -17 -6
-31 -8 -31 -5 0 3 43 85 95 182 52 98 95 184 95 192 1 7 7 0 15 -18 7 -18 32
-52 55 -76z"/>
</g>
</svg>
